<svg xmlns="http://www.w3.org/2000/svg" width="800" height="600" viewBox="0 0 800 600">
  <rect width="800" height="600" fill="#f5f5f5"/>
  <rect x="0" y="0" width="800" height="52" fill="#cccccc"/>
  <rect x="16" y="16" width="80" height="20" rx="2" fill="#999"/>
  <rect x="580" y="16" width="50" height="20" rx="2" fill="#bbb"/>
  <rect x="640" y="16" width="50" height="20" rx="2" fill="#bbb"/>
  <rect x="700" y="16" width="50" height="20" rx="2" fill="#bbb"/>
  <rect x="0" y="52" width="800" height="220" fill="#e0e0e0"/>
  <rect x="200" y="110" width="400" height="28" rx="2" fill="#aaaaaa"/>
  <rect x="260" y="150" width="280" height="16" rx="2" fill="#bbbbbb"/>
  <rect x="320" y="180" width="160" height="36" rx="4" fill="#999999"/>
  <rect x="40" y="300" width="220" height="160" rx="4" fill="#d4d4d4"/>
  <rect x="290" y="300" width="220" height="160" rx="4" fill="#d4d4d4"/>
  <rect x="540" y="300" width="220" height="160" rx="4" fill="#d4d4d4"/>
  <rect x="40" y="320" width="140" height="14" rx="2" fill="#bbb"/>
  <rect x="290" y="320" width="140" height="14" rx="2" fill="#bbb"/>
  <rect x="540" y="320" width="140" height="14" rx="2" fill="#bbb"/>
  <rect x="0" y="484" width="800" height="116" fill="#e8e8e8"/>
  <text x="400" y="540" font-family="sans-serif" font-size="18" fill="#999" text-anchor="middle">The average agency site</text>
  <text x="400" y="566" font-family="sans-serif" font-size="13" fill="#bbb" text-anchor="middle">Generic. Forgettable. Template #4872.</text>
</svg>
