<svg xmlns="http://www.w3.org/2000/svg" width="800" height="600" viewBox="0 0 800 600">
  <rect width="800" height="600" fill="#0a0a0f"/>
  <defs>
    <radialGradient id="glow" cx="50%" cy="30%" r="60%">
      <stop offset="0%" stop-color="#7c3aed" stop-opacity="0.15"/>
      <stop offset="100%" stop-color="#0a0a0f" stop-opacity="0"/>
    </radialGradient>
  </defs>
  <rect width="800" height="600" fill="url(#glow)"/>
  <rect x="240" y="16" width="320" height="40" rx="20" fill="#18181b" stroke="#27272a" stroke-width="1"/>
  <rect x="260" y="26" width="48" height="20" rx="3" fill="#27272a"/>
  <rect x="320" y="30" width="40" height="12" rx="2" fill="#3f3f46"/>
  <rect x="372" y="30" width="40" height="12" rx="2" fill="#3f3f46"/>
  <rect x="424" y="30" width="40" height="12" rx="2" fill="#3f3f46"/>
  <rect x="496" y="24" width="52" height="24" rx="12" fill="#7c3aed"/>
  <rect x="180" y="88" width="440" height="24" rx="3" fill="#ffffff" opacity="0.9"/>
  <rect x="240" y="124" width="320" height="14" rx="2" fill="#71717a"/>
  <rect x="260" y="156" width="120" height="40" rx="20" fill="#7c3aed"/>
  <rect x="396" y="156" width="120" height="40" rx="20" fill="transparent" stroke="#3f3f46" stroke-width="1"/>
  <rect x="276" y="170" width="88" height="12" rx="2" fill="#e2e8f0"/>
  <rect x="412" y="170" width="88" height="12" rx="2" fill="#52525b"/>
  <rect x="40" y="236" width="220" height="200" rx="12" fill="#111115" stroke="#27272a" stroke-width="1"/>
  <rect x="290" y="236" width="220" height="200" rx="12" fill="#111115" stroke="#27272a" stroke-width="1"/>
  <rect x="540" y="236" width="220" height="200" rx="12" fill="#111115" stroke="#27272a" stroke-width="1"/>
  <rect x="56" y="256" width="80" height="44" rx="8" fill="#1c1c23"/>
  <rect x="306" y="256" width="80" height="44" rx="8" fill="#1c1c23"/>
  <rect x="556" y="256" width="80" height="44" rx="8" fill="#1c1c23"/>
  <rect x="56" y="314" width="140" height="14" rx="2" fill="#e4e4e7"/>
  <rect x="306" y="314" width="140" height="14" rx="2" fill="#e4e4e7"/>
  <rect x="556" y="314" width="140" height="14" rx="2" fill="#e4e4e7"/>
  <rect x="0" y="468" width="800" height="132" fill="#0d0d12"/>
  <text x="400" y="526" font-family="serif" font-size="18" fill="#e4e4e7" text-anchor="middle">Parker Thomas quality</text>
  <text x="400" y="552" font-family="sans-serif" font-size="13" fill="#71717a" text-anchor="middle">Premium. Polished. Worth showing off.</text>
</svg>
